<svg width="171" height="22" viewBox="0 0 171 22" fill="none" xmlns="http://www.w3.org/2000/svg">
<path d="M3.004 21.252C1.66 21.252 0.988 20.552 0.988 19.152V3.192C0.988 2.48267 1.156 1.94133 1.492 1.568C1.84667 1.19467 2.31333 1.008 2.892 1.008C3.37733 1.008 3.76 1.11067 4.04 1.316C4.32 1.50267 4.63733 1.82 4.992 2.268L14.064 13.832V3.08C14.064 1.69867 14.736 1.008 16.08 1.008C17.424 1.008 18.096 1.69867 18.096 3.08V19.236C18.096 19.852 17.9373 20.3467 17.62 20.72C17.3027 21.0747 16.8733 21.252 16.332 21.252C15.8093 21.252 15.3893 21.1493 15.072 20.944C14.7733 20.7387 14.4467 20.412 14.092 19.964L5.02 8.4V19.152C5.02 20.552 4.348 21.252 3.004 21.252ZM22.63 21.252C21.846 21.252 21.286 20.9907 20.95 20.468C20.614 19.9453 20.6234 19.3013 20.978 18.536L28.146 2.828C28.4447 2.19333 28.7994 1.736 29.21 1.456C29.6207 1.15733 30.0967 1.008 30.638 1.008C31.1794 1.008 31.6554 1.15733 32.066 1.456C32.4767 1.736 32.822 2.19333 33.102 2.828L40.326 18.536C40.6807 19.32 40.69 19.9733 40.354 20.496C40.0367 21 39.514 21.252 38.786 21.252C38.1514 21.252 37.6567 21.1027 37.302 20.804C36.966 20.5053 36.6674 20.0387 36.406 19.404L35.23 16.716H26.018L24.87 19.404C24.59 20.0573 24.2914 20.5333 23.974 20.832C23.6567 21.112 23.2087 21.252 22.63 21.252ZM30.582 5.88L27.474 13.328H33.802L30.638 5.88H30.582ZM52.2632 21.308C50.1352 21.308 48.3152 20.888 46.8032 20.048C45.2912 19.208 44.1246 18.032 43.3032 16.52C42.5006 14.9893 42.0992 13.188 42.0992 11.116C42.0992 9.06267 42.5006 7.28 43.3032 5.768C44.1246 4.23733 45.2912 3.052 46.8032 2.212C48.3152 1.372 50.1352 0.951999 52.2632 0.951999C53.1966 0.951999 54.1392 1.07333 55.0912 1.316C56.0619 1.55867 56.9019 1.88533 57.6112 2.296C58.1899 2.632 58.5446 3.052 58.6752 3.556C58.8059 4.06 58.7592 4.536 58.5352 4.984C58.3299 5.432 58.0032 5.74933 57.5552 5.936C57.1072 6.12267 56.6032 6.05733 56.0432 5.74C55.4832 5.404 54.8952 5.16133 54.2792 5.012C53.6632 4.86267 53.0379 4.788 52.4032 4.788C50.5179 4.788 49.0899 5.33867 48.1192 6.44C47.1672 7.52267 46.6912 9.08133 46.6912 11.116C46.6912 13.1507 47.1672 14.7187 48.1192 15.82C49.0899 16.9213 50.5179 17.472 52.4032 17.472C53.0006 17.472 53.6072 17.3973 54.2232 17.248C54.8579 17.0987 55.4646 16.8653 56.0432 16.548C56.6406 16.2307 57.1632 16.1653 57.6112 16.352C58.0592 16.52 58.3859 16.8187 58.5912 17.248C58.8152 17.6587 58.8712 18.116 58.7592 18.62C58.6472 19.1053 58.3299 19.5067 57.8072 19.824C57.0979 20.2907 56.2392 20.6547 55.2312 20.916C54.2419 21.1773 53.2526 21.308 52.2632 21.308ZM70.3003 21.308C68.3589 21.308 66.6509 20.888 65.1763 20.048C63.7203 19.1893 62.5816 18.004 61.7603 16.492C60.9576 14.9613 60.5563 13.1693 60.5563 11.116C60.5563 9.06267 60.9576 7.28 61.7603 5.768C62.5816 4.23733 63.7203 3.052 65.1763 2.212C66.6323 1.372 68.3403 0.951999 70.3003 0.951999C72.2603 0.951999 73.9683 1.372 75.4243 2.212C76.8989 3.052 78.0376 4.23733 78.8403 5.768C79.6616 7.28 80.0723 9.05333 80.0723 11.088C80.0723 13.1413 79.6616 14.9333 78.8403 16.464C78.0376 17.9947 76.8989 19.1893 75.4243 20.048C73.9683 20.888 72.2603 21.308 70.3003 21.308ZM70.3003 17.612C71.9429 17.612 73.2216 17.0427 74.1363 15.904C75.0696 14.7467 75.5363 13.1507 75.5363 11.116C75.5363 9.06267 75.0789 7.476 74.1643 6.356C73.2496 5.21733 71.9616 4.648 70.3003 4.648C68.6763 4.648 67.3976 5.21733 66.4643 6.356C65.5496 7.476 65.0923 9.06267 65.0923 11.116C65.0923 13.1507 65.5496 14.7467 66.4643 15.904C67.3976 17.0427 68.6763 17.612 70.3003 17.612ZM90.4854 21.308C89.2907 21.308 88.0961 21.1773 86.9014 20.916C85.7067 20.6547 84.6707 20.272 83.7934 19.768C83.2707 19.488 82.9441 19.1147 82.8134 18.648C82.6827 18.1627 82.7107 17.696 82.8974 17.248C83.0841 16.8 83.3827 16.4827 83.7934 16.296C84.2041 16.1093 84.6987 16.156 85.2774 16.436C86.0241 16.8653 86.8547 17.1827 87.7694 17.388C88.6841 17.5933 89.5894 17.696 90.4854 17.696C91.8294 17.696 92.7907 17.4907 93.3694 17.08C93.9667 16.6507 94.2654 16.1187 94.2654 15.484C94.2654 14.9427 94.0601 14.5133 93.6494 14.196C93.2387 13.8787 92.5201 13.608 91.4934 13.384L88.3294 12.712C84.8014 11.9653 83.0374 10.136 83.0374 7.224C83.0374 5.97333 83.3734 4.88133 84.0454 3.948C84.7174 2.996 85.6507 2.25867 86.8454 1.736C88.0587 1.21333 89.4587 0.951999 91.0454 0.951999C92.0907 0.951999 93.1174 1.08267 94.1254 1.344C95.1334 1.58667 96.0201 1.95067 96.7854 2.436C97.2521 2.716 97.5414 3.08 97.6534 3.528C97.7654 3.976 97.7281 4.40533 97.5414 4.816C97.3734 5.22667 97.0747 5.516 96.6454 5.684C96.2347 5.852 95.7214 5.78667 95.1054 5.488C94.4894 5.17067 93.8361 4.93733 93.1454 4.788C92.4547 4.63867 91.7454 4.564 91.0174 4.564C89.8414 4.564 88.9267 4.79733 88.2734 5.264C87.6387 5.712 87.3214 6.3 87.3214 7.028C87.3214 7.56933 87.5174 8.008 87.9094 8.344C88.3014 8.68 88.9827 8.95067 89.9534 9.156L93.1174 9.828C96.7387 10.612 98.5494 12.3853 98.5494 15.148C98.5494 16.38 98.2134 17.4627 97.5414 18.396C96.8881 19.3107 95.9547 20.0293 94.7414 20.552C93.5467 21.056 92.1281 21.308 90.4854 21.308ZM118.343 21.308C116.402 21.308 114.694 20.888 113.219 20.048C111.763 19.1893 110.625 18.004 109.803 16.492C109.001 14.9613 108.599 13.1693 108.599 11.116C108.599 9.06267 109.001 7.28 109.803 5.768C110.625 4.23733 111.763 3.052 113.219 2.212C114.675 1.372 116.383 0.951999 118.343 0.951999C120.303 0.951999 122.011 1.372 123.467 2.212C124.942 3.052 126.081 4.23733 126.883 5.768C127.705 7.28 128.115 9.05333 128.115 11.088C128.115 13.1413 127.705 14.9333 126.883 16.464C126.081 17.9947 124.942 19.1893 123.467 20.048C122.011 20.888 120.303 21.308 118.343 21.308ZM118.343 17.612C119.986 17.612 121.265 17.0427 122.179 15.904C123.113 14.7467 123.579 13.1507 123.579 11.116C123.579 9.06267 123.122 7.476 122.207 6.356C121.293 5.21733 120.005 4.648 118.343 4.648C116.719 4.648 115.441 5.21733 114.507 6.356C113.593 7.476 113.135 9.06267 113.135 11.116C113.135 13.1507 113.593 14.7467 114.507 15.904C115.441 17.0427 116.719 17.612 118.343 17.612ZM140.628 21.308C138.687 21.308 136.979 20.888 135.504 20.048C134.048 19.1893 132.91 18.004 132.088 16.492C131.286 14.9613 130.884 13.1693 130.884 11.116C130.884 9.06267 131.286 7.28 132.088 5.768C132.91 4.23733 134.048 3.052 135.504 2.212C136.96 1.372 138.668 0.951999 140.628 0.951999C142.588 0.951999 144.296 1.372 145.752 2.212C147.227 3.052 148.366 4.23733 149.168 5.768C149.99 7.28 150.4 9.05333 150.4 11.088C150.4 13.1413 149.99 14.9333 149.168 16.464C148.366 17.9947 147.227 19.1893 145.752 20.048C144.296 20.888 142.588 21.308 140.628 21.308ZM140.628 17.612C142.271 17.612 143.55 17.0427 144.464 15.904C145.398 14.7467 145.864 13.1507 145.864 11.116C145.864 9.06267 145.407 7.476 144.492 6.356C143.578 5.21733 142.29 4.648 140.628 4.648C139.004 4.648 137.726 5.21733 136.792 6.356C135.878 7.476 135.42 9.06267 135.42 11.116C135.42 13.1507 135.878 14.7467 136.792 15.904C137.726 17.0427 139.004 17.612 140.628 17.612ZM162.214 21.308C159.414 21.308 157.276 20.5893 155.802 19.152C154.346 17.7147 153.618 15.5773 153.618 12.74V3.22C153.618 2.51067 153.804 1.96933 154.178 1.596C154.551 1.204 155.092 1.008 155.802 1.008C157.239 1.008 157.958 1.74533 157.958 3.22V12.768C157.958 14.3733 158.322 15.5867 159.05 16.408C159.778 17.2107 160.832 17.612 162.214 17.612C165.032 17.612 166.442 15.9973 166.442 12.768V3.22C166.442 1.74533 167.16 1.008 168.598 1.008C169.288 1.008 169.811 1.204 170.166 1.596C170.539 1.96933 170.726 2.51067 170.726 3.22V12.74C170.726 15.5773 170.007 17.7147 168.57 19.152C167.132 20.5893 165.014 21.308 162.214 21.308Z" fill="white"/>
</svg>
